<svg width="400" height="220" viewBox="0 0 400 220" fill="none" xmlns="http://www.w3.org/2000/svg">
<path d="M150.101 104.97H130" stroke="#FFBE00" stroke-width="3" stroke-linecap="round" stroke-linejoin="round"/>
<path d="M179.97 75.1011V55" stroke="#FFBE00" stroke-width="3" stroke-linecap="round" stroke-linejoin="round"/>
<path d="M159.019 84.0193L144.722 69.722" stroke="#FFBE00" stroke-width="3" stroke-linecap="round" stroke-linejoin="round"/>
<path d="M158.595 125.92L144.439 140.076" stroke="#FFBE00" stroke-width="3" stroke-linecap="round" stroke-linejoin="round"/>
<path d="M214.934 69.722L200.637 84.0193" stroke="#FFBE00" stroke-width="3" stroke-linecap="round" stroke-linejoin="round"/>
<path d="M165.814 118.984C158.028 111.057 158.17 98.3165 166.097 90.6724C173.883 83.0283 186.34 83.0283 194.126 90.6724" stroke="#FFBE00" stroke-width="3" stroke-linecap="round" stroke-linejoin="round"/>
<path d="M270.142 145.88V193.018C270.142 194.151 269.292 195 268.16 195H231.78C230.647 195 229.798 194.151 229.798 193.018L229.939 156.78C229.939 155.647 229.09 154.798 227.958 154.798L201.77 154.939C200.637 154.939 199.788 155.789 199.788 156.921V193.018C199.788 194.151 198.938 195 197.806 195H161.85C160.718 195 159.869 194.151 159.869 193.018V145.88C159.869 145.313 160.152 144.889 160.435 144.464L213.519 91.2386C214.368 90.5308 215.501 90.5308 216.35 91.2386L269.575 144.464C270 144.889 270.142 145.313 270.142 145.88Z" stroke="#2C2E2E" stroke-width="3" stroke-linecap="round" stroke-linejoin="round"/>
</svg>
